/* XPM */
static char * gnugo_xpm[] = {
"32 32 118 2",
"  	c #FFFFFF",
". 	c #FEFEFE",
"+ 	c #DCDCDC",
"@ 	c #D9D9D9",
"# 	c #FBFBFB",
"$ 	c #E1E1E1",
"% 	c #F9F9F9",
"& 	c #FCFCFC",
"* 	c #DFDFDF",
"= 	c #F6F6F6",
"- 	c #F8F8F8",
"; 	c #E3E3E3",
"> 	c #DDDDDD",
", 	c #EFEFEF",
"' 	c #D5D5D5",
") 	c #E5E5E5",
"! 	c #DBDBDB",
"~ 	c #F0F0F0",
"{ 	c #ACACAC",
"] 	c #E8E8E8",
"^ 	c #D1D1D1",
"/ 	c #4C4C4C",
"( 	c #000000",
"_ 	c #090909",
": 	c #777777",
"< 	c #EEEEEE",
"[ 	c #F2F2F2",
"} 	c #D2D2D2",
"| 	c #E7E7E7",
"1 	c #D6D6D6",
"2 	c #CBCBCB",
"3 	c #CFCFCF",
"4 	c #FDFDFD",
"5 	c #848484",
"6 	c #070707",
"7 	c #252525",
"8 	c #CCCCCC",
"9 	c #D0D0D0",
"0 	c #F3F3F3",
"a 	c #BABABA",
"b 	c #121212",
"c 	c #181818",
"d 	c #191919",
"e 	c #080808",
"f 	c #272727",
"g 	c #A2A2A2",
"h 	c #0E0E0E",
"i 	c #9A9A9A",
"j 	c #707070",
"k 	c #6A6A6A",
"l 	c #CECECE",
"m 	c #6F6F6F",
"n 	c #303030",
"o 	c #E2E2E2",
"p 	c #F7F7F7",
"q 	c #242424",
"r 	c #404040",
"s 	c #282828",
"t 	c #1D1D1D",
"u 	c #1E1E1E",
"v 	c #0D0D0D",
"w 	c #0A0A0A",
"x 	c #020202",
"y 	c #111111",
"z 	c #3E3E3E",
"A 	c #161616",
"B 	c #4A4A4A",
"C 	c #2F2F2F",
"D 	c #212121",
"E 	c #C4C4C4",
"F 	c #232323",
"G 	c #010101",
"H 	c #141414",
"I 	c #1B1B1B",
"J 	c #1C1C1C",
"K 	c #0B0B0B",
"L 	c #838383",
"M 	c #363636",
"N 	c #B7B7B7",
"O 	c #8A8A8A",
"P 	c #0F0F0F",
"Q 	c #1A1A1A",
"R 	c #787878",
"S 	c #E9E9E9",
"T 	c #464646",
"U 	c #101010",
"V 	c #373737",
"W 	c #D8D8D8",
"X 	c #F5F5F5",
"Y 	c #474747",
"Z 	c #B1B1B1",
"` 	c #454545",
" .	c #C1C1C1",
"..	c #989898",
"+.	c #E0E0E0",
"@.	c #F4F4F4",
"#.	c #060606",
"$.	c #585858",
"%.	c #8D8D8D",
"&.	c #656565",
"*.	c #2C2C2C",
"=.	c #050505",
"-.	c #909090",
";.	c #5E5E5E",
">.	c #959595",
",.	c #626262",
"'.	c #EAEAEA",
").	c #DADADA",
"!.	c #D3D3D3",
"~.	c #FAFAFA",
"{.	c #5C5C5C",
"].	c #6D6D6D",
"^.	c #BCBCBC",
"/.	c #B8B8B8",
"(.	c #999999",
"_.	c #7B7B7B",
":.	c #BBBBBB",
"<.	c #DEDEDE",
"                                                                ",
"                                                                ",
"                                                                ",
"                                                                ",
"                                                                ",
"                                                                ",
"                        .     + @     .                         ",
"                          # $ % & * #                           ",
"                .     .   $ =     - *   .     .                 ",
"  .     . ; > ,     .   @ %         & '   .       + )       .   ",
"  . = + @ !   ~ { ]   @ #   .     .     '   ^ / ( ( ( _ : <     ",
". [ } | 1 2 %   1 + 3 -   .         .   4 5 6 ( ( ( ( ( ( 7 8   ",
"& 9   0 } 1 ) 8 | ] - $   .         .   a ( ( ( ( b c d e ( f , ",
"g h : i j k l m n     o p               q r s t u v w x d y ( 5 ",
"z ( ( ( A B C D v !     +             E ( ( A F h G H x x I ( J ",
"K ( ( ( w 3 L M H N     *             O ( ( ( ( P Q G ( ( K t ( ",
"_ ( ( ( x R S T ( m     *             5 ( ( ( ( ( b 6 ( ( ( P U ",
"V ( ( ( ( J W X ( Y -   >             Z ( ( ( ( ( ` *  .j ( ( C ",
"..( ( ( f +.S @ ( z 0 | @.              #.( ( ( ( $.      %.( &.",
"0 *.( =.>     -.u ;.% *   .         .   >.( ( ( ( ,.  .   '.B ! ",
"  2 H %.4 < ).} 3 !.9 & .             . ~.{.( ( ( ].  .   = @ 4 ",
"    ) ^./.1 ~ # ! ) - W   .         .   + 0 (._ ( _.    ; +.4   ",
"  .     p * * $       & W     . .     ! -       :.:.o + -     . ",
"      .         .   .   ~.$ #     & ; p   . .             .     ",
"                      .   p $     ; X   .                       ",
"                            ~.! <.p                             ",
"                                                                ",
"                                                                ",
"                                                                ",
"                                                                ",
"                                                                ",
"                                                                "};
